<!DOCTYPE svg PUBLIC "-//W3C//DTD SVG 1.1//EN" "http://www.w3.org/Graphics/SVG/1.1/DTD/svg11.dtd">
<!-- Uploaded to: SVG Repo, www.svgrepo.com, Transformed by: SVG Repo Mixer Tools -->
<svg width="87px" height="87px" viewBox="-2.5 -2.5 30.00 30.00" fill="none" xmlns="http://www.w3.org/2000/svg" transform="matrix(1, 0, 0, 1, 0, 0)">
<g id="SVGRepo_bgCarrier" stroke-width="0"/>
<g id="SVGRepo_tracerCarrier" stroke-linecap="round" stroke-linejoin="round" stroke="#CCCCCC" stroke-width="0.05"/>
<g id="SVGRepo_iconCarrier"> <path fill-rule="evenodd" clip-rule="evenodd" d="M14.9523 12.0001C14.9791 13.5185 13.7707 14.7716 12.2523 14.8001C10.7335 14.7722 9.52456 13.5189 9.55131 12.0001C9.52455 10.4816 10.7329 9.22853 12.2513 9.20007C13.7701 9.22799 14.9791 10.4812 14.9523 12.0001Z" stroke="#FFD700" stroke-width="1.5" stroke-linecap="round" stroke-linejoin="round"/> <path d="M18.3283 14.683C17.7601 16.1419 16.7124 17.3639 15.3573 18.148C14.0308 18.9102 12.4752 19.172 10.9723 18.886C9.45631 18.5892 8.09247 17.77 7.11831 16.571C5.06696 14.0352 4.95495 10.4437 6.84431 7.78503C7.74122 6.52221 9.05036 5.61162 10.5463 5.21003C12.0246 4.82104 13.5935 4.97576 14.9673 5.64603C16.368 6.33545 17.4903 7.48385 18.1473 8.90003L18.1943 9.00003C18.9083 10.629 18.3663 13.4 16.6403 13.4C15.6876 13.3787 14.9322 12.5898 14.9523 11.637" stroke="#FFD700" stroke-width="1.5" stroke-linecap="round" stroke-linejoin="round"/> </g>
</svg>